<svg xmlns="http://www.w3.org/2000/svg" width="512" height="512" viewBox="0 0 512 512" fill="none">
  <defs>
    <style>
      .face { fill: #0F172A; }
      .orbit { stroke: #94A3B8; }
      .task { fill: #EFF6FF; stroke: #BFDBFE; }
      .core { fill: #F8FAFC; }
      .core-line { stroke: #CBD5E1; }
      .accent-a { fill: #2563EB; stroke: #2563EB; }
      .accent-b { fill: #10B981; stroke: #10B981; }
      .accent-c { stroke: #F59E0B; }
      .spark { fill: #22D3EE; stroke: #22D3EE; }
      @media (prefers-color-scheme: dark) {
        .face { fill: #020617; }
        .orbit { stroke: #64748B; }
        .task { fill: #0F172A; stroke: #334155; }
        .core { fill: #E2E8F0; }
        .core-line { stroke: #64748B; }
        .accent-a { fill: #60A5FA; stroke: #60A5FA; }
        .accent-b { fill: #34D399; stroke: #34D399; }
        .accent-c { stroke: #FBBF24; }
        .spark { fill: #67E8F9; stroke: #67E8F9; }
      }
    </style>
    <linearGradient id="agentGradient" x1="154" y1="128" x2="346" y2="326" gradientUnits="userSpaceOnUse">
      <stop stop-color="#A7F3D0"/>
      <stop offset=".48" stop-color="#22D3EE"/>
      <stop offset="1" stop-color="#2563EB"/>
    </linearGradient>
    <filter id="softShadow" x="0" y="0" width="512" height="512" color-interpolation-filters="sRGB" filterUnits="userSpaceOnUse">
      <feDropShadow dx="0" dy="18" stdDeviation="18" flood-color="#0F172A" flood-opacity=".18"/>
    </filter>
  </defs>

  <g filter="url(#softShadow)" transform="translate(256 256) scale(1.18) translate(-256 -256)">
    <path class="orbit" d="M132 340c48-48 72-105 72-172" stroke="#94A3B8" stroke-linecap="round" stroke-width="14"/>
    <path class="orbit" d="M380 340c-48-48-72-105-72-172" stroke="#94A3B8" stroke-linecap="round" stroke-width="14"/>

    <rect x="162" y="128" width="188" height="188" rx="52" fill="url(#agentGradient)"/>
    <rect class="face" x="194" y="174" width="124" height="92" rx="28" fill="#0F172A" fill-opacity=".92"/>
    <circle cx="232" cy="220" r="10" fill="#F8FAFC"/>
    <circle cx="280" cy="220" r="10" fill="#F8FAFC"/>
    <path class="spark" d="M234 248c13 12 31 12 44 0" stroke="#22D3EE" stroke-linecap="round" stroke-width="10"/>
    <path class="spark" d="M256 111v28" stroke="#22D3EE" stroke-linecap="round" stroke-width="14"/>
    <circle class="spark" cx="256" cy="96" r="15" fill="#22D3EE"/>

    <rect class="task" x="100" y="306" width="108" height="76" rx="24" fill="#EFF6FF" stroke="#BFDBFE" stroke-width="10"/>
    <rect class="task" x="304" y="306" width="108" height="76" rx="24" fill="#EFF6FF" stroke="#BFDBFE" stroke-width="10"/>
    <path class="accent-a" d="M130 342h48" stroke="#2563EB" stroke-linecap="round" stroke-width="12"/>
    <path class="accent-b" d="M334 342h48" stroke="#10B981" stroke-linecap="round" stroke-width="12"/>
    <circle class="core" cx="154" cy="382" r="21" fill="#F8FAFC"/>
    <circle class="core" cx="358" cy="382" r="21" fill="#F8FAFC"/>
    <circle class="accent-a" cx="154" cy="382" r="9" fill="#2563EB"/>
    <circle class="accent-b" cx="358" cy="382" r="9" fill="#10B981"/>

    <path class="orbit" d="M218 350h76" stroke="#94A3B8" stroke-linecap="round" stroke-width="16"/>
    <circle class="core core-line" cx="256" cy="350" r="24" fill="#F8FAFC" stroke="#CBD5E1" stroke-width="8"/>
    <path class="accent-c" d="M248 350l8 8 18-22" stroke="#F59E0B" stroke-linecap="round" stroke-linejoin="round" stroke-width="9"/>
  </g>
</svg>
